<mxfile host="app.diagrams.net" modified="2024-06-14T10:37:29.696Z" agent="Mozilla/5.0 (X11; Linux x86_64) AppleWebKit/537.36 (KHTML, like Gecko) Chrome/126.0.0.0 Safari/537.36" etag="f4mFHuYk0eYx79o5J4sx" version="24.5.4" type="device">
  <diagram name="Page-1" id="6bdgxWif7orxaYUU16MI">
    <mxGraphModel dx="2324" dy="770" grid="0" gridSize="10" guides="1" tooltips="1" connect="1" arrows="1" fold="1" page="0" pageScale="1" pageWidth="850" pageHeight="1100" math="0" shadow="0">
      <root>
        <mxCell id="0" />
        <mxCell id="1" parent="0" />
        <mxCell id="o3fK-S1af2w00dByT0cn-20" value="" style="ellipse;whiteSpace=wrap;html=1;fillColor=#dae8fc;strokeColor=#6c8ebf;sketch=1;curveFitting=1;jiggle=2;" parent="1" vertex="1">
          <mxGeometry x="-505" y="90" width="498" height="295" as="geometry" />
        </mxCell>
        <mxCell id="o3fK-S1af2w00dByT0cn-21" value="" style="ellipse;whiteSpace=wrap;html=1;fillColor=#e1d5e7;strokeColor=#9673a6;sketch=1;curveFitting=1;jiggle=2;" parent="1" vertex="1">
          <mxGeometry x="-337.5" y="102.5" width="160" height="65" as="geometry" />
        </mxCell>
        <mxCell id="o3fK-S1af2w00dByT0cn-22" value="" style="ellipse;whiteSpace=wrap;html=1;fillColor=#ffcccc;strokeColor=#36393d;sketch=1;curveFitting=1;jiggle=2;" parent="1" vertex="1">
          <mxGeometry x="-147" y="184.5" width="124" height="71" as="geometry" />
        </mxCell>
        <mxCell id="o3fK-S1af2w00dByT0cn-23" value="" style="ellipse;whiteSpace=wrap;html=1;fillColor=#d5e8d4;strokeColor=#82b366;sketch=1;curveFitting=1;jiggle=2;" parent="1" vertex="1">
          <mxGeometry x="-469" y="180" width="326" height="194" as="geometry" />
        </mxCell>
        <mxCell id="o3fK-S1af2w00dByT0cn-25" value="&lt;font style=&quot;font-size: 18px;&quot;&gt;project&lt;/font&gt;" style="rounded=1;whiteSpace=wrap;html=1;sketch=1;curveFitting=1;jiggle=2;" parent="1" vertex="1">
          <mxGeometry x="-302.5" y="115" width="90" height="40" as="geometry" />
        </mxCell>
        <mxCell id="YvCl1RgQ5dsPh9u3tjeq-8" style="edgeStyle=orthogonalEdgeStyle;rounded=0;orthogonalLoop=1;jettySize=auto;html=1;exitX=0.5;exitY=0;exitDx=0;exitDy=0;entryX=0;entryY=0.5;entryDx=0;entryDy=0;startArrow=classic;startFill=1;endArrow=none;endFill=0;" parent="1" source="o3fK-S1af2w00dByT0cn-26" target="o3fK-S1af2w00dByT0cn-25" edge="1">
          <mxGeometry relative="1" as="geometry" />
        </mxCell>
        <mxCell id="YvCl1RgQ5dsPh9u3tjeq-9" style="edgeStyle=orthogonalEdgeStyle;rounded=0;orthogonalLoop=1;jettySize=auto;html=1;exitX=0.5;exitY=0;exitDx=0;exitDy=0;entryX=1;entryY=0.5;entryDx=0;entryDy=0;startArrow=classic;startFill=1;endArrow=none;endFill=0;" parent="1" source="o3fK-S1af2w00dByT0cn-27" target="o3fK-S1af2w00dByT0cn-25" edge="1">
          <mxGeometry relative="1" as="geometry" />
        </mxCell>
        <mxCell id="o3fK-S1af2w00dByT0cn-27" value="&lt;font style=&quot;font-size: 18px;&quot;&gt;client&lt;/font&gt;" style="rounded=1;whiteSpace=wrap;html=1;sketch=1;curveFitting=1;jiggle=2;" parent="1" vertex="1">
          <mxGeometry x="-132" y="200.5" width="90" height="40" as="geometry" />
        </mxCell>
        <mxCell id="YvCl1RgQ5dsPh9u3tjeq-10" value="" style="ellipse;whiteSpace=wrap;html=1;fillColor=#f8cecc;strokeColor=#b85450;sketch=1;curveFitting=1;jiggle=2;" parent="1" vertex="1">
          <mxGeometry x="-457" y="274.5" width="124" height="71" as="geometry" />
        </mxCell>
        <mxCell id="YvCl1RgQ5dsPh9u3tjeq-11" value="" style="ellipse;whiteSpace=wrap;html=1;fillColor=#fad7ac;strokeColor=#b46504;sketch=1;curveFitting=1;jiggle=2;" parent="1" vertex="1">
          <mxGeometry x="-399.5" y="187" width="124" height="71" as="geometry" />
        </mxCell>
        <mxCell id="YvCl1RgQ5dsPh9u3tjeq-12" value="" style="ellipse;whiteSpace=wrap;html=1;fillColor=#b1ddf0;strokeColor=#10739e;sketch=1;curveFitting=1;jiggle=2;" parent="1" vertex="1">
          <mxGeometry x="-297" y="274.5" width="124" height="71" as="geometry" />
        </mxCell>
        <mxCell id="o3fK-S1af2w00dByT0cn-26" value="&lt;font style=&quot;font-size: 18px;&quot;&gt;server project&lt;/font&gt;" style="rounded=1;whiteSpace=wrap;html=1;sketch=1;curveFitting=1;jiggle=2;" parent="1" vertex="1">
          <mxGeometry x="-382.5" y="200" width="90" height="40" as="geometry" />
        </mxCell>
        <mxCell id="YvCl1RgQ5dsPh9u3tjeq-4" style="edgeStyle=orthogonalEdgeStyle;rounded=0;orthogonalLoop=1;jettySize=auto;html=1;exitX=1;exitY=0.5;exitDx=0;exitDy=0;entryX=0;entryY=0.5;entryDx=0;entryDy=0;startArrow=classic;startFill=1;endArrow=none;endFill=0;" parent="1" source="YvCl1RgQ5dsPh9u3tjeq-1" target="YvCl1RgQ5dsPh9u3tjeq-2" edge="1">
          <mxGeometry relative="1" as="geometry" />
        </mxCell>
        <mxCell id="YvCl1RgQ5dsPh9u3tjeq-5" style="edgeStyle=orthogonalEdgeStyle;rounded=0;orthogonalLoop=1;jettySize=auto;html=1;exitX=0.5;exitY=0;exitDx=0;exitDy=0;entryX=0.25;entryY=1;entryDx=0;entryDy=0;startArrow=classic;startFill=1;endArrow=none;endFill=0;" parent="1" source="YvCl1RgQ5dsPh9u3tjeq-1" target="o3fK-S1af2w00dByT0cn-26" edge="1">
          <mxGeometry relative="1" as="geometry" />
        </mxCell>
        <mxCell id="YvCl1RgQ5dsPh9u3tjeq-1" value="&lt;font style=&quot;font-size: 18px;&quot;&gt;JAR&lt;/font&gt;" style="rounded=1;whiteSpace=wrap;html=1;sketch=1;curveFitting=1;jiggle=2;" parent="1" vertex="1">
          <mxGeometry x="-440" y="290" width="90" height="40" as="geometry" />
        </mxCell>
        <mxCell id="YvCl1RgQ5dsPh9u3tjeq-2" value="&lt;font style=&quot;font-size: 18px;&quot;&gt;container image&lt;/font&gt;" style="rounded=1;whiteSpace=wrap;html=1;sketch=1;curveFitting=1;jiggle=2;" parent="1" vertex="1">
          <mxGeometry x="-280" y="290" width="90" height="40" as="geometry" />
        </mxCell>
        <mxCell id="YvCl1RgQ5dsPh9u3tjeq-7" style="edgeStyle=orthogonalEdgeStyle;rounded=0;orthogonalLoop=1;jettySize=auto;html=1;exitX=0.5;exitY=0;exitDx=0;exitDy=0;entryX=0.75;entryY=1;entryDx=0;entryDy=0;startArrow=classic;startFill=1;endArrow=none;endFill=0;" parent="1" source="YvCl1RgQ5dsPh9u3tjeq-2" target="o3fK-S1af2w00dByT0cn-26" edge="1">
          <mxGeometry relative="1" as="geometry" />
        </mxCell>
      </root>
    </mxGraphModel>
  </diagram>
</mxfile>
